<svg xmlns="http://www.w3.org/2000/svg" width="13.074" height="13.072" viewBox="0 0 13.074 13.072">
  <path id="Icon_awesome-instagram" data-name="Icon awesome-instagram" d="M6.533,5.422A3.351,3.351,0,1,0,9.885,8.774,3.346,3.346,0,0,0,6.533,5.422Zm0,5.53A2.179,2.179,0,1,1,8.712,8.774a2.183,2.183,0,0,1-2.179,2.179ZM10.8,5.285a.782.782,0,1,1-.782-.782A.78.78,0,0,1,10.8,5.285Zm2.22.793A3.869,3.869,0,0,0,11.967,3.34,3.894,3.894,0,0,0,9.228,2.284c-1.079-.061-4.314-.061-5.393,0A3.888,3.888,0,0,0,1.1,3.337,3.881,3.881,0,0,0,.041,6.076c-.061,1.079-.061,4.314,0,5.393A3.869,3.869,0,0,0,1.1,14.208a3.9,3.9,0,0,0,2.739,1.056c1.079.061,4.314.061,5.393,0a3.868,3.868,0,0,0,2.739-1.056,3.894,3.894,0,0,0,1.056-2.739c.061-1.079.061-4.311,0-5.39Zm-1.394,6.548a2.206,2.206,0,0,1-1.243,1.243,14.4,14.4,0,0,1-3.853.263,14.517,14.517,0,0,1-3.853-.263,2.206,2.206,0,0,1-1.243-1.243,14.407,14.407,0,0,1-.263-3.853A14.519,14.519,0,0,1,1.438,4.92,2.206,2.206,0,0,1,2.68,3.678a14.4,14.4,0,0,1,3.853-.263,14.517,14.517,0,0,1,3.853.263A2.206,2.206,0,0,1,11.629,4.92a14.407,14.407,0,0,1,.263,3.853A14.4,14.4,0,0,1,11.629,12.627Z" transform="translate(0.005 -2.238)" fill="#e50f10"/>
</svg>
