<svg xmlns="http://www.w3.org/2000/svg" width="11.6" height="11.601" viewBox="0 0 11.6 11.601">
  <path id="Icon_awesome-link" data-name="Icon awesome-link" d="M7.4,4.2a3.442,3.442,0,0,1,.008,4.862L7.4,9.071,5.877,10.594a3.444,3.444,0,0,1-4.87-4.87l.841-.841a.362.362,0,0,1,.618.24,4.175,4.175,0,0,0,.22,1.195.365.365,0,0,1-.086.376l-.3.3A1.631,1.631,0,1,0,4.6,9.312L6.118,7.789a1.631,1.631,0,0,0,0-2.307,1.7,1.7,0,0,0-.234-.194A.363.363,0,0,1,5.727,5a.9.9,0,0,1,.265-.675l.477-.477a.364.364,0,0,1,.466-.039A3.455,3.455,0,0,1,7.4,4.2Zm3.193-3.193a3.448,3.448,0,0,0-4.87,0L4.2,2.53l-.008.008A3.445,3.445,0,0,0,4.665,7.79a.364.364,0,0,0,.466-.039l.477-.477A.9.9,0,0,0,5.874,6.6a.363.363,0,0,0-.157-.286,1.7,1.7,0,0,1-.234-.194,1.631,1.631,0,0,1,0-2.307L7,2.289A1.631,1.631,0,1,1,9.3,4.611l-.3.3a.365.365,0,0,0-.086.376,4.175,4.175,0,0,1,.22,1.195.362.362,0,0,0,.618.24l.841-.841a3.448,3.448,0,0,0,0-4.87Z" transform="translate(0 0)" fill="#e50f10"/>
</svg>
