<svg xmlns="http://www.w3.org/2000/svg" width="277.338" height="329.476" viewBox="0 0 277.338 329.476">
  <g id="Group_357" data-name="Group 357" transform="translate(-643.787 -367)">
    <path id="Path_7709" data-name="Path 7709" d="M2.94,0h8.792c3.724,0,6.72-2.408,6.72-5.852A5.215,5.215,0,0,0,13.8-11.088v-.056a5.055,5.055,0,0,0,3.92-5.012c0-3-2.436-5.684-6.944-5.684H2.94ZM4.956-1.82v-8.288H10.92c3.192,0,5.4,1.736,5.4,4.228,0,2.38-2.016,4.06-5.208,4.06Zm0-10.052V-20.02h5.32c3.052,0,5.348,1.6,5.348,4.144,0,2.352-1.932,4-5.152,4ZM22.9,0H24.92V-8.708H29.9L35.728,0h2.24c-1.96-2.94-3.92-5.852-5.88-8.764v-.028c3.3-.336,5.656-2.8,5.656-6.552,0-4.2-3.276-6.5-7.168-6.5H22.9ZM24.92-10.5v-9.52h5.292c3.164,0,5.432,1.736,5.432,4.788,0,3.08-2.072,4.732-5.236,4.732ZM49.84.476c5.628,0,7.924-3.668,7.924-8.4V-21.84H55.776v13.8c0,4.676-2.24,6.664-5.852,6.664-3.584,0-5.852-1.988-5.852-6.664v-13.8H42.084V-7.924C42.084-2.548,44.8.476,49.84.476Zm19.908,0c4,0,7.448-2.492,7.448-6.384,0-3.976-3.584-4.872-6.02-5.656l-2.128-.7c-1.4-.448-4.62-1.456-4.62-4.34,0-2.352,2.156-3.836,4.788-3.836a5.684,5.684,0,0,1,5.628,4.116l1.792-.728a7.119,7.119,0,0,0-7.224-5.236c-3.5,0-7.084,1.932-7.084,5.824,0,4.06,3.836,5.4,6.02,6.1l2.044.644c2.128.672,4.648,1.232,4.648,4.088,0,3.024-2.8,4.256-5.236,4.256-2.912,0-5.46-1.736-6.384-5.236l-1.848.672A8.106,8.106,0,0,0,69.748.476Zm18.06,0c4,0,7.448-2.492,7.448-6.384,0-3.976-3.584-4.872-6.02-5.656l-2.128-.7c-1.4-.448-4.62-1.456-4.62-4.34,0-2.352,2.156-3.836,4.788-3.836A5.684,5.684,0,0,1,92.9-16.324l1.792-.728a7.119,7.119,0,0,0-7.224-5.236c-3.5,0-7.084,1.932-7.084,5.824,0,4.06,3.836,5.4,6.02,6.1l2.044.644C90.58-9.044,93.1-8.484,93.1-5.628c0,3.024-2.8,4.256-5.236,4.256-2.912,0-5.46-1.736-6.384-5.236l-1.848.672A8.106,8.106,0,0,0,87.808.476ZM99.512,0H113.54V-1.9H101.528v-8.372H112.7v-1.876H101.528V-20.02H113.26v-1.82H99.512Zm18.424,0h13.188V-1.9H119.952V-21.84h-2.016Zm22.9,0h2.016V-21.84H140.84Zm7.9,0h2.016V-18.424h.028C155.148-12.1,159.516-6.076,163.772,0h2.184V-21.84H163.94V-3.164h-.056c-4.34-6.412-8.652-12.516-12.964-18.676h-2.184ZM179.2,0h8.792c3.724,0,6.72-2.408,6.72-5.852a5.215,5.215,0,0,0-4.648-5.236v-.056a5.055,5.055,0,0,0,3.92-5.012c0-3-2.436-5.684-6.944-5.684H179.2Zm2.016-1.82v-8.288h5.964c3.192,0,5.4,1.736,5.4,4.228,0,2.38-2.016,4.06-5.208,4.06Zm0-10.052V-20.02h5.32c3.052,0,5.348,1.6,5.348,4.144,0,2.352-1.932,4-5.152,4ZM199.164,0h14.028V-1.9H201.18v-8.372h11.172v-1.876H201.18V-20.02h11.732v-1.82H199.164Zm18.424,0h14.028V-1.9H219.6v-8.372h11.172v-1.876H219.6V-20.02h11.732v-1.82H217.588Zm18.424,0H249.2V-1.9H238.028V-21.84h-2.016Zm16.576,0h7.952c6.356,0,10.108-4.564,10.108-11.06,0-5.908-3.08-10.78-10.36-10.78h-7.7ZM254.6-1.82v-18.2h5.236c5.4,0,8.708,3.3,8.708,9.128,0,5.628-3.08,9.072-7.9,9.072Z" transform="translate(645 696)" fill="#f7f5f1"/>
    <g id="Group_356" data-name="Group 356">
      <g id="Group_354" data-name="Group 354" transform="translate(735.494 367)">
        <g id="Group_350" data-name="Group 350" transform="translate(0 0)">
          <g id="Group_348" data-name="Group 348" transform="translate(185.632) rotate(90)">
            <path id="Rectangle_227" data-name="Rectangle 227" d="M0,0H151.261a0,0,0,0,1,0,0V115.111a0,0,0,0,1,0,0H20a20,20,0,0,1-20-20V0A0,0,0,0,1,0,0Z" transform="translate(0 70.52)" fill="#f7f5f1"/>
            <ellipse id="Ellipse_1" data-name="Ellipse 1" cx="75.631" cy="75.188" rx="75.631" ry="75.188" fill="#f7f5f1"/>
          </g>
          <g id="Group_349" data-name="Group 349" transform="translate(185.632 145.129) rotate(90)">
            <path id="Rectangle_227-2" data-name="Rectangle 227" d="M0,0H151.261a0,0,0,0,1,0,0V94.636a20,20,0,0,1-20,20H0a0,0,0,0,1,0,0V0A0,0,0,0,1,0,0Z" transform="translate(0 70.995)" fill="#f7f5f1"/>
            <ellipse id="Ellipse_1-2" data-name="Ellipse 1" cx="75.631" cy="75.868" rx="75.631" ry="75.868" fill="#f7f5f1"/>
          </g>
        </g>
        <g id="Group_352" data-name="Group 352" transform="translate(147.208 30.187) rotate(90)">
          <path id="Rectangle_227-3" data-name="Rectangle 227" d="M0,0H88.643a0,0,0,0,1,0,0V67.458a0,0,0,0,1,0,0H20a20,20,0,0,1-20-20V0A0,0,0,0,1,0,0Z" transform="translate(0 41.327)" fill="#e50f10"/>
          <ellipse id="Ellipse_1-3" data-name="Ellipse 1" cx="44.321" cy="44.062" rx="44.321" ry="44.062" fill="#e50f10"/>
        </g>
        <g id="Group_353" data-name="Group 353" transform="translate(38.423 264.772) rotate(-90)">
          <path id="Rectangle_227-4" data-name="Rectangle 227" d="M20,0H88.643a0,0,0,0,1,0,0V67.458a0,0,0,0,1,0,0H0a0,0,0,0,1,0,0V20A20,20,0,0,1,20,0Z" transform="translate(0 0)" fill="#e50f10"/>
          <ellipse id="Ellipse_1-4" data-name="Ellipse 1" cx="44.321" cy="44.062" rx="44.321" ry="44.062" transform="translate(0 20.66)" fill="#e50f10"/>
        </g>
      </g>
      <g id="Group_355" data-name="Group 355" transform="translate(645.457 367)">
        <g id="Group_350-2" data-name="Group 350" transform="translate(0 0)">
          <g id="Group_348-2" data-name="Group 348" transform="translate(184.241) rotate(90)">
            <path id="Rectangle_227-5" data-name="Rectangle 227" d="M0,0H151.261a0,0,0,0,1,0,0V115.111a0,0,0,0,1,0,0H20a20,20,0,0,1-20-20V0A0,0,0,0,1,0,0Z" transform="translate(0 70.8)" fill="#f7f5f1"/>
            <ellipse id="Ellipse_1-5" data-name="Ellipse 1" cx="75.631" cy="76.209" rx="75.631" ry="76.209" fill="#f7f5f1"/>
          </g>
          <g id="Group_349-2" data-name="Group 349" transform="translate(188.43 145.129) rotate(90)">
            <path id="Rectangle_227-6" data-name="Rectangle 227" d="M0,0H151.261a0,0,0,0,1,0,0V94.636a20,20,0,0,1-20,20H0a0,0,0,0,1,0,0V0A0,0,0,0,1,0,0Z" transform="translate(0 75.463)" fill="#f7f5f1"/>
            <ellipse id="Ellipse_1-6" data-name="Ellipse 1" cx="75.631" cy="76.962" rx="75.631" ry="76.962" transform="translate(0 2.28)" fill="#f7f5f1"/>
          </g>
        </g>
        <g id="Group_352-2" data-name="Group 352" transform="translate(147.208 30.187) rotate(90)">
          <path id="Rectangle_227-7" data-name="Rectangle 227" d="M0,0H88.643a0,0,0,0,1,0,0V67.458a0,0,0,0,1,0,0H20a20,20,0,0,1-20-20V0A0,0,0,0,1,0,0Z" transform="translate(0 41.327)" fill="#e50f10"/>
          <ellipse id="Ellipse_1-7" data-name="Ellipse 1" cx="44.321" cy="44.062" rx="44.321" ry="44.062" fill="#e50f10"/>
        </g>
        <g id="Group_353-2" data-name="Group 353" transform="translate(38.423 264.772) rotate(-90)">
          <path id="Rectangle_227-8" data-name="Rectangle 227" d="M20,0H88.643a0,0,0,0,1,0,0V67.458a0,0,0,0,1,0,0H0a0,0,0,0,1,0,0V20A20,20,0,0,1,20,0Z" transform="translate(0 0)" fill="#e50f10"/>
          <ellipse id="Ellipse_1-8" data-name="Ellipse 1" cx="44.321" cy="44.062" rx="44.321" ry="44.062" transform="translate(0 20.66)" fill="#e50f10"/>
        </g>
      </g>
    </g>
  </g>
</svg>
